<svg width="1663" height="867" xmlns="http://www.w3.org/2000/svg" xmlns:xlink="http://www.w3.org/1999/xlink" xml:space="preserve" overflow="hidden"><g transform="translate(-641 -189)"><rect x="641" y="198" width="1663" height="858" fill="#03234B" fill-opacity="0.501961"/><text fill="#FFFFFF" font-family="Arial,Arial_MSFontService,sans-serif" font-weight="400" font-size="83" transform="matrix(1 0 0 1 1362.36 295)">ADC1</text><rect x="693" y="328" width="571" height="650" fill="#49B170"/><text fill="#FFFFFF" font-family="Arial,Arial_MSFontService,sans-serif" font-weight="400" font-size="83" transform="matrix(1 0 0 1 884.646 424)">Scan </text><text fill="#FFFFFF" font-family="Arial,Arial_MSFontService,sans-serif" font-weight="400" font-size="83" transform="matrix(1 0 0 1 799.854 523)">sequence</text><rect x="719" y="562" width="519" height="130" fill="#3CB4E6"/><text fill="#FFFFFF" font-family="Arial,Arial_MSFontService,sans-serif" font-weight="400" font-size="83" transform="matrix(1 0 0 1 877.76 657)">Temp</text><rect x="719.5" y="692.5" width="519" height="130" stroke="#2983A9" stroke-width="4.58333" stroke-miterlimit="8" fill="#3CB4E6"/><text fill="#FFFFFF" font-family="Arial,Arial_MSFontService,sans-serif" font-weight="400" font-size="83" transform="matrix(1 0 0 1 893.813 787)">Vbat</text><rect x="719" y="822" width="519" height="130" fill="#E6007E"/><text fill="#FFFFFF" font-family="Arial,Arial_MSFontService,sans-serif" font-weight="400" font-size="83" transform="matrix(1 0 0 1 893.813 917)">Vbat</text><rect x="1524" y="458" width="572" height="390" fill="#FFD200"/><text fill="#FFFFFF" font-family="Arial,Arial_MSFontService,sans-serif" font-weight="400" font-size="83" transform="matrix(1 0 0 1 1750.61 554)">DR</text><rect x="1550" y="614" width="520" height="130" fill="#E6007E"/><text fill="#FFFFFF" font-family="Arial,Arial_MSFontService,sans-serif" font-weight="400" font-size="83" transform="matrix(1 0 0 1 1709.35 709)">Temp</text><path d="M3.81356-5.72035 287.057 183.109 279.43 194.55-3.81356 5.72035ZM288.964 167.855 311.846 207.897 266.083 202.177Z" fill="#E6007E" transform="matrix(1 0 0 -1 1238 886.897)"/></g></svg>