<svg width="3898" height="1221" xmlns="http://www.w3.org/2000/svg" xmlns:xlink="http://www.w3.org/1999/xlink" xml:space="preserve" overflow="hidden"><g transform="translate(-251 -120)"><path d="M953 371.336C953 275.605 1030.6 198 1126.34 198L3299.66 198C3395.4 198 3473 275.605 3473 371.336L3473 1064.66C3473 1160.39 3395.4 1238 3299.66 1238L1126.34 1238C1030.6 1238 953 1160.39 953 1064.66Z" fill="#3CB4E6" fill-rule="evenodd" fill-opacity="0.501961"/><text fill="#03234B" font-family="Arial,Arial_MSFontService,sans-serif" font-weight="400" font-size="64" transform="matrix(1 0 0 1 1233.19 585)">Conversion</text><text fill="#03234B" font-family="Arial,Arial_MSFontService,sans-serif" font-weight="400" font-size="64" transform="matrix(1 0 0 1 1233.19 723)">Data ready</text><text fill="#03234B" font-family="Arial,Arial_MSFontService,sans-serif" font-weight="400" font-size="64" transform="matrix(1 0 0 1 1252.3 855)">Data read</text><path d="M1559 606 1680.27 606" stroke="#03234B" stroke-width="10.3125" stroke-miterlimit="8" fill="none" fill-rule="evenodd"/><path d="M0 0 0.000360892 99.9668" stroke="#03234B" stroke-width="10.3125" stroke-miterlimit="8" fill="none" fill-rule="evenodd" transform="matrix(1 0 0 -1 1680 605.967)"/><path d="M0 0 249.846 1.80807" stroke="#03234B" stroke-width="10.3125" stroke-miterlimit="8" fill="none" fill-rule="evenodd" transform="matrix(1 0 0 -1 1680 511.808)"/><path d="M0 0 0.000360892 99.9668" stroke="#03234B" stroke-width="10.3125" stroke-miterlimit="8" fill="none" fill-rule="evenodd" transform="matrix(1 0 0 -1 1930 611.967)"/><path d="M1930 606 2543.31 606" stroke="#03234B" stroke-width="10.3125" stroke-miterlimit="8" fill="none" fill-rule="evenodd"/><path d="M1559 745 1930.12 745" stroke="#E6007E" stroke-width="10.3125" stroke-miterlimit="8" fill="none" fill-rule="evenodd"/><path d="M0 0 0.000360892 99.9668" stroke="#E6007E" stroke-width="10.3125" stroke-miterlimit="8" fill="none" fill-rule="evenodd" transform="matrix(1 0 0 -1 1930 748.967)"/><path d="M1930 649 2488.31 649" stroke="#E6007E" stroke-width="10.3125" stroke-miterlimit="8" fill="none" fill-rule="evenodd"/><text fill="#03234B" font-family="Arial,Arial_MSFontService,sans-serif" font-weight="400" font-size="64" transform="matrix(1 0 0 1 2075.88 575)">Auto wait</text><path d="M0 0 0.000360892 98.5752" stroke="#E6007E" stroke-width="10.3125" stroke-miterlimit="8" fill="none" fill-rule="evenodd" transform="matrix(1 0 0 -1 2488 748.575)"/><path d="M2488 744 2820.25 744" stroke="#E6007E" stroke-width="10.3125" stroke-miterlimit="8" fill="none" fill-rule="evenodd"/><path d="M1559 864 2488.43 864" stroke="#00B050" stroke-width="10.3125" stroke-miterlimit="8" fill="none" fill-rule="evenodd"/><path d="M0 0 0.000360892 99.9668" stroke="#00B050" stroke-width="10.3125" stroke-miterlimit="8" fill="none" fill-rule="evenodd" transform="matrix(1 0 0 -1 2488 863.967)"/><path d="M0 0 0.000360892 99.9668" stroke="#00B050" stroke-width="10.3125" stroke-miterlimit="8" fill="none" fill-rule="evenodd" transform="matrix(1 0 0 -1 2543 865.967)"/><path d="M2488 769 2543 769" stroke="#00B050" stroke-width="10.3125" stroke-miterlimit="8" fill="none" fill-rule="evenodd"/><path d="M2543 857 2914.12 857" stroke="#00B050" stroke-width="10.3125" stroke-miterlimit="8" fill="none" fill-rule="evenodd"/><path d="M0 0 0.000360892 99.9668" stroke="#03234B" stroke-width="10.3125" stroke-miterlimit="8" fill="none" fill-rule="evenodd" transform="matrix(1 0 0 -1 2538 603.967)"/><path d="M2543 510 2813.25 510" stroke="#03234B" stroke-width="10.3125" stroke-miterlimit="8" fill="none" fill-rule="evenodd"/><path d="M0 0 0.000360892 99.9668" stroke="#03234B" stroke-width="10.3125" stroke-miterlimit="8" fill="none" fill-rule="evenodd" transform="matrix(1 0 0 -1 2814 609.967)"/><path d="M0 0 0.000360892 99.9668" stroke="#E6007E" stroke-width="10.3125" stroke-miterlimit="8" fill="none" fill-rule="evenodd" transform="matrix(1 0 0 -1 2821 743.967)"/><path d="M0 0 96.8382 0.000360892" stroke="#E6007E" stroke-width="10.3125" stroke-miterlimit="8" fill="none" fill-rule="evenodd" transform="matrix(1 0 0 -1 2818 645)"/><path d="M2551.46 809.255 2568.37 793.253 2568.31 793.309 2584.69 777.314 2584.61 777.395 2592.44 769.402 2592.36 769.481 2599.86 761.491 2599.77 761.593 2606.88 753.607 2606.77 753.736 2613.41 745.755 2613.28 745.916 2619.4 737.942 2619.25 738.143 2624.77 730.175 2624.61 730.424 2629.47 722.464 2629.3 722.772 2633.44 714.82 2633.26 715.198 2636.61 707.254 2636.44 707.712 2638.93 699.779 2638.79 700.322 2640.36 692.399 2640.28 693.023 2640.86 685.111 2640.85 685.783 2640.4 677.883 2640.47 678.515 2639.03 670.625 2639.16 671.18 2636.8 663.301 2636.97 663.773 2633.75 655.903 2633.92 656.294 2629.91 648.434 2630.09 648.753 2625.35 640.901 2625.52 641.16 2620.12 633.315 2620.27 633.523 2614.29 625.685 2614.42 625.852 2607.9 618.02 2608.02 618.153 2601.04 610.326 2601.14 610.432 2593.76 602.609 2593.84 602.691 2586.14 594.872 2586.24 594.968 2572.18 581.431 2579.33 574.002 2593.44 587.586 2601.23 595.494 2608.69 603.41 2615.77 611.357 2622.41 619.339 2628.55 627.364 2634.1 635.442 2639.01 643.583 2643.21 651.798 2646.61 660.098 2649.12 668.49 2650.67 676.974 2651.17 685.529 2650.54 694.092 2648.85 702.6 2646.21 711.034 2642.68 719.395 2638.37 727.689 2633.33 735.927 2627.65 744.119 2621.4 752.274 2614.64 760.398 2607.43 768.499 2599.85 776.579 2591.94 784.652 2575.48 800.716 2558.54 816.745ZM2568.87 592.498 2557.02 560 2590.13 570.022Z" fill="#00B050"/><path d="M0 0 96.8382 0.000360892" stroke="#03234B" stroke-width="10.3125" stroke-miterlimit="8" fill="none" fill-rule="evenodd" transform="matrix(1 0 0 -1 2809 610.001)"/></g></svg>