<svg width="3898" height="1040" xmlns="http://www.w3.org/2000/svg" xmlns:xlink="http://www.w3.org/1999/xlink" xml:space="preserve" overflow="hidden"><g transform="translate(-121 -198)"><path d="M1602 386.002C1602 325.25 1651.25 276 1712 276L2152 276C2212.75 276 2262 325.25 2262 386.002L2262 1050C2262 1110.75 2212.75 1160 2152 1160L1712 1160C1651.25 1160 1602 1110.75 1602 1050Z" fill="#3CB4E6" fill-rule="evenodd" fill-opacity="0.501961"/><text fill="#FFFFFF" font-family="Arial,Arial_MSFontService,sans-serif" font-weight="400" font-size="83" transform="matrix(1 0 0 1 1817.71 405)">Single </text><text fill="#FFFFFF" font-family="Arial,Arial_MSFontService,sans-serif" font-weight="400" font-size="83" transform="matrix(1 0 0 1 1723.75 504)">Continuous</text><rect x="1732" y="838" width="390" height="114" fill="#E6007E"/><text fill="#FFFFFF" font-family="Arial,Arial_MSFontService,sans-serif" font-weight="400" font-size="83" transform="matrix(1 0 0 1 1846.93 925)">CHx</text><path d="M1946.88 716 1946.88 813.625 1933.13 813.625 1933.13 716ZM1960.63 806.75 1940 848 1919.38 806.75Z" fill="#03234B"/><path d="M1732 659C1732 627.52 1819.3 602 1927 602 2034.7 602 2122 627.52 2122 659 2122 690.48 2034.7 716 1927 716 1819.3 716 1732 690.48 1732 659Z" fill="#49B170" fill-rule="evenodd"/><text fill="#FFFFFF" font-family="Arial,Arial_MSFontService,sans-serif" font-weight="400" font-size="83" transform="matrix(1 0 0 1 1840.05 689)">Start</text><path d="M1940 953 1940 1030" stroke="#03234B" stroke-width="13.75" stroke-miterlimit="8" fill="none" fill-rule="evenodd"/><path d="M0 0 285.859 0.000360892" stroke="#03234B" stroke-width="13.75" stroke-miterlimit="8" fill="none" fill-rule="evenodd" transform="matrix(-1 0 0 1 1939.86 1030)"/><path d="M0 0 0.000360892 259.871" stroke="#03234B" stroke-width="13.75" stroke-miterlimit="8" fill="none" fill-rule="evenodd" transform="matrix(1 0 0 -1 1654 1029.87)"/><path d="M1654 763.125 1905.48 763.125 1905.48 776.875 1654 776.875ZM1898.61 749.375 1939.86 770 1898.61 790.625Z" fill="#03234B"/></g></svg>