<svg width="3898" height="1689" xmlns="http://www.w3.org/2000/svg" xmlns:xlink="http://www.w3.org/1999/xlink" xml:space="preserve" overflow="hidden"><g transform="translate(-251 -198)"><path d="M1862 412.002C1862 351.25 1911.25 302 1972 302L2412 302C2472.75 302 2522 351.25 2522 412.002L2522 1647C2522 1707.75 2472.75 1757 2412 1757L1972 1757C1911.25 1757 1862 1707.75 1862 1647Z" fill="#3CB4E6" fill-rule="evenodd" fill-opacity="0.501961"/><text fill="#FFFFFF" font-family="Arial,Arial_MSFontService,sans-serif" font-weight="400" font-size="83" transform="matrix(1 0 0 1 2086.75 431)">Scan: </text><text fill="#FFFFFF" font-family="Arial,Arial_MSFontService,sans-serif" font-weight="400" font-size="83" transform="matrix(1 0 0 1 1983.63 530)">Continuous </text><text fill="#FFFFFF" font-family="Arial,Arial_MSFontService,sans-serif" font-weight="400" font-size="83" transform="matrix(1 0 0 1 1933.21 629)">(multi</text><text fill="#FFFFFF" font-family="Arial,Arial_MSFontService,sans-serif" font-weight="400" font-size="83" transform="matrix(1 0 0 1 2134.88 629)">-</text><text fill="#FFFFFF" font-family="Arial,Arial_MSFontService,sans-serif" font-weight="400" font-size="83" transform="matrix(1 0 0 1 2162.38 629)">channel </text><text fill="#FFFFFF" font-family="Arial,Arial_MSFontService,sans-serif" font-weight="400" font-size="83" transform="matrix(1 0 0 1 2015.71 728)">repeated)</text><rect x="1992" y="1030" width="416" height="104" fill="#E6007E"/><text fill="#FFFFFF" font-family="Arial,Arial_MSFontService,sans-serif" font-weight="400" font-size="83" transform="matrix(1 0 0 1 2119.79 1112)">CHx</text><path d="M2206.88 883 2206.88 995.625 2193.13 995.625 2193.12 883ZM2220.63 988.75 2200 1030 2179.38 988.75Z" fill="#03234B"/><path d="M1992 826.5C1992 795.296 2079.3 770 2187 770 2294.7 770 2382 795.296 2382 826.5 2382 857.704 2294.7 883 2187 883 2079.3 883 1992 857.704 1992 826.5Z" fill="#49B170" fill-rule="evenodd"/><text fill="#FFFFFF" font-family="Arial,Arial_MSFontService,sans-serif" font-weight="400" font-size="83" transform="matrix(1 0 0 1 2099.92 857)">Start</text><rect x="1992" y="1212" width="416" height="103" fill="#E6007E"/><text fill="#FFFFFF" font-family="Arial,Arial_MSFontService,sans-serif" font-weight="400" font-size="83" transform="matrix(1 0 0 1 2158.75 1294)">…</text><path d="M2206.88 1134 2206.88 1177.62 2193.13 1177.63 2193.12 1134ZM2220.63 1170.75 2200 1212 2179.38 1170.75Z" fill="#03234B"/><rect x="1992" y="1393" width="416" height="106" fill="#E6007E"/><text fill="#FFFFFF" font-family="Arial,Arial_MSFontService,sans-serif" font-weight="400" font-size="83" transform="matrix(1 0 0 1 2117.5 1477)">CHn</text><path d="M2206.88 1315 2206.88 1357.62 2193.13 1357.62 2193.12 1315ZM2220.63 1350.75 2200 1392 2179.38 1350.75Z" fill="#03234B"/><path d="M2206.88 1497 2206.88 1539.62 2193.13 1539.62 2193.12 1497ZM2220.63 1532.75 2200 1574 2179.38 1532.75Z" fill="#03234B"/><path d="M0 0 285.859 0.000360892" stroke="#03234B" stroke-width="13.75" stroke-miterlimit="8" fill="none" fill-rule="evenodd" transform="matrix(-1 0 0 1 2199.86 1575)"/><path d="M1914 945.125 2165.48 945.125 2165.48 958.875 1914 958.875ZM2158.61 931.375 2199.86 952 2158.61 972.625Z" fill="#03234B"/><path d="M0 0 0.000360892 623.691" stroke="#03234B" stroke-width="13.75" stroke-miterlimit="8" fill="none" fill-rule="evenodd" transform="matrix(1 0 0 -1 1914 1575.69)"/></g></svg>