<svg width="2521" height="1039" xmlns="http://www.w3.org/2000/svg" xmlns:xlink="http://www.w3.org/1999/xlink" xml:space="preserve" overflow="hidden"><defs><clipPath id="clip0"><rect x="43" y="328" width="2521" height="1039"/></clipPath></defs><g clip-path="url(#clip0)" transform="translate(-43 -328)"><path d="M43 501.17C43 405.531 120.531 328 216.17 328L2390.83 328C2486.47 328 2564 405.531 2564 501.17L2564 1193.83C2564 1289.47 2486.47 1367 2390.83 1367L216.17 1367C120.531 1367 43 1289.47 43 1193.83Z" fill="#3CB4E6" fill-rule="evenodd" fill-opacity="0.501961"/><rect x="641" y="614" width="779" height="104" fill="#49B170"/><text fill="#FFFFFF" font-family="Arial,Arial_MSFontService,sans-serif" font-weight="400" font-size="83" transform="matrix(1 0 0 1 858.704 696)">Sampling</text><rect x="1420" y="614" width="520" height="104" fill="#03234B" fill-opacity="0.501961"/><text fill="#FFFFFF" font-family="Arial,Arial_MSFontService,sans-serif" font-weight="400" font-size="83" transform="matrix(1 0 0 1 1471.72 696)">Conversion</text><rect x="901" y="744" width="519" height="104" fill="#49B170"/><text fill="#FFFFFF" font-family="Arial,Arial_MSFontService,sans-serif" font-weight="400" font-size="83" transform="matrix(1 0 0 1 988.639 826)">Sampling</text><rect x="1161" y="874" width="262" height="104" fill="#49B170"/><text fill="#FFFFFF" font-family="Arial,Arial_MSFontService,sans-serif" font-weight="400" font-size="46" transform="matrix(1 0 0 1 1196.72 943)">Sampling</text></g></svg>