<svg width="3898" height="910" xmlns="http://www.w3.org/2000/svg" xmlns:xlink="http://www.w3.org/1999/xlink" xml:space="preserve" overflow="hidden"><g transform="translate(-121 -328)"><rect x="2174" y="458" width="520" height="520" fill="#03234B"/><text fill="#FFFFFF" font-family="Arial,Arial_MSFontService,sans-serif" font-weight="700" font-size="92" transform="matrix(1 0 0 1 2203.76 752)">SAR</text><text fill="#FFFFFF" font-family="Arial,Arial_MSFontService,sans-serif" font-weight="700" font-size="92" transform="matrix(1 0 0 1 2419.79 752)">ADC</text><path d="M2174 978 2087 718 2174 458Z" fill="#03234B" fill-rule="evenodd"/><rect x="1525" y="510" width="390" height="104" fill="#49B170"/><text fill="#FFFFFF" font-family="Arial,Arial_MSFontService,sans-serif" font-weight="400" font-size="83" transform="matrix(1 0 0 1 1655.47 592)">IN1</text><rect x="1525" y="822" width="390" height="104" fill="#49B170"/><text fill="#FFFFFF" font-family="Arial,Arial_MSFontService,sans-serif" font-weight="400" font-size="83" transform="matrix(1 0 0 1 1655.47 904)">IN2</text><rect x="1525" y="1030" width="390" height="104" fill="#8C0078"/><text fill="#FFFFFF" font-family="Arial,Arial_MSFontService,sans-serif" font-weight="400" font-size="83" transform="matrix(1 0 0 1 1595.89 1112)">VREF</text><text fill="#FFFFFF" font-family="Arial,Arial_MSFontService,sans-serif" font-weight="400" font-size="83" transform="matrix(1 0 0 1 1815.89 1112)">-</text><path d="M1915 1082 2434.74 1082" stroke="#03234B" stroke-width="8.02083" stroke-miterlimit="8" fill="none" fill-rule="evenodd"/><path d="M2434.2 1081.95 2434 978" stroke="#03234B" stroke-width="8.02083" stroke-miterlimit="8" fill="none" fill-rule="evenodd"/><path d="M1915 874 2200.86 874.001" stroke="#03234B" stroke-width="8.02083" stroke-miterlimit="8" fill="none" fill-rule="evenodd"/><path d="M1915 562 2200.86 562" stroke="#03234B" stroke-width="8.02083" stroke-miterlimit="8" fill="none" fill-rule="evenodd"/><path d="M1401.87 562 1401.88 839.471 1388.13 839.471 1388.12 562ZM1415.63 832.596 1395 873.846 1374.38 832.596Z" fill="#03234B"/><text fill="#03234B" font-family="Arial,Arial_MSFontService,sans-serif" font-weight="400" font-size="73" transform="matrix(1 0 0 1 1427.8 753)">Uadc</text><text fill="#03234B" font-family="Arial,Arial_MSFontService,sans-serif" font-weight="400" font-size="73" transform="matrix(1 0 0 1 1598.53 753)">=Vin1 </text><text fill="#03234B" font-family="Arial,Arial_MSFontService,sans-serif" font-weight="400" font-size="73" transform="matrix(1 0 0 1 1806.89 753)">–</text><text fill="#03234B" font-family="Arial,Arial_MSFontService,sans-serif" font-weight="400" font-size="73" transform="matrix(1 0 0 1 1868.19 753)">Vin2</text></g></svg>