<svg width="3898" height="1949" xmlns="http://www.w3.org/2000/svg" xmlns:xlink="http://www.w3.org/1999/xlink" xml:space="preserve" overflow="hidden"><g transform="translate(-251 -198)"><path d="M1878 412.003C1878 351.25 1927.25 302 1988 302L2428 302C2488.75 302 2538 351.25 2538 412.003L2538 1907C2538 1967.75 2488.75 2017 2428 2017L1988 2017C1927.25 2017 1878 1967.75 1878 1907Z" fill="#3CB4E6" fill-rule="evenodd" fill-opacity="0.501961"/><text fill="#FFFFFF" font-family="Arial,Arial_MSFontService,sans-serif" font-weight="400" font-size="83" transform="matrix(1 0 0 1 1948.87 431)">Discontinuous </text><text fill="#FFFFFF" font-family="Arial,Arial_MSFontService,sans-serif" font-weight="400" font-size="83" transform="matrix(1 0 0 1 2104.71 530)">mode</text><rect x="2008" y="848" width="416" height="104" fill="#E6007E"/><text fill="#FFFFFF" font-family="Arial,Arial_MSFontService,sans-serif" font-weight="400" font-size="83" transform="matrix(1 0 0 1 2135.46 930)">CHx</text><path d="M2222.88 701 2222.88 813.625 2209.13 813.625 2209.13 701ZM2236.63 806.75 2216 848 2195.38 806.75Z" fill="#03234B"/><path d="M2008 644.5C2008 613.296 2101.12 588 2216 588 2330.88 588 2424 613.296 2424 644.5 2424 675.704 2330.88 701 2216 701 2101.12 701 2008 675.704 2008 644.5Z" fill="#49B170" fill-rule="evenodd"/><text fill="#FFFFFF" font-family="Arial,Arial_MSFontService,sans-serif" font-weight="400" font-size="83" transform="matrix(1 0 0 1 2128.58 675)">Start</text><path d="M2222.88 952 2222.88 995.625 2209.13 995.625 2209.13 952ZM2236.63 988.75 2216 1030 2195.38 988.75Z" fill="#03234B"/><rect x="2008" y="1212" width="416" height="105" fill="#E6007E"/><text fill="#FFFFFF" font-family="Arial,Arial_MSFontService,sans-serif" font-weight="400" font-size="83" transform="matrix(1 0 0 1 2174.42 1295)">…</text><path d="M2222.88 1134 2222.88 1175.62 2209.13 1175.62 2209.13 1134ZM2236.63 1168.75 2216 1210 2195.38 1168.75Z" fill="#03234B"/><path d="M2222.88 1315 2222.88 1357.62 2209.13 1357.62 2209.13 1315ZM2236.63 1350.75 2216 1392 2195.38 1350.75Z" fill="#03234B"/><path d="M0 0 285.859 0.000360892" stroke="#03234B" stroke-width="13.75" stroke-miterlimit="8" fill="none" fill-rule="evenodd" transform="matrix(-1 0 0 1 2215.86 1939)"/><path d="M1930 638.125 1973.59 638.125 1973.59 651.875 1930 651.875ZM1966.71 624.375 2007.96 645 1966.71 665.625Z" fill="#03234B"/><path d="M0 0 0.000360892 1299.36" stroke="#03234B" stroke-width="13.75" stroke-miterlimit="8" fill="none" fill-rule="evenodd" transform="matrix(1 0 0 -1 1930 1939.36)"/><path d="M2008 1086.5C2008 1055.3 2101.12 1030 2216 1030 2330.88 1030 2424 1055.3 2424 1086.5 2424 1117.7 2330.88 1143 2216 1143 2101.12 1143 2008 1117.7 2008 1086.5Z" fill="#49B170" fill-rule="evenodd"/><text fill="#FFFFFF" font-family="Arial,Arial_MSFontService,sans-serif" font-weight="400" font-size="50" transform="matrix(1 0 0 1 2103.95 1105)">Start/Stop</text><path d="M2008 1450C2008 1418.52 2101.12 1393 2216 1393 2330.88 1393 2424 1418.52 2424 1450 2424 1481.48 2330.88 1507 2216 1507 2101.12 1507 2008 1481.48 2008 1450Z" fill="#49B170" fill-rule="evenodd"/><text fill="#FFFFFF" font-family="Arial,Arial_MSFontService,sans-serif" font-weight="400" font-size="50" transform="matrix(1 0 0 1 2103.95 1469)">Start/Stop</text><rect x="2008" y="1575" width="416" height="106" fill="#E6007E"/><text fill="#FFFFFF" font-family="Arial,Arial_MSFontService,sans-serif" font-weight="400" font-size="83" transform="matrix(1 0 0 1 2133.17 1659)">CHn</text><path d="M2222.88 1497 2222.88 1539.62 2209.13 1539.62 2209.13 1497ZM2236.63 1532.75 2216 1574 2195.38 1532.75Z" fill="#03234B"/><path d="M2222.88 1679 2222.88 1721.62 2209.13 1721.62 2209.13 1679ZM2236.63 1714.75 2216 1756 2195.38 1714.75Z" fill="#03234B"/><path d="M2008 1804.5C2008 1773.3 2101.12 1748 2216 1748 2330.88 1748 2424 1773.3 2424 1804.5 2424 1835.7 2330.88 1861 2216 1861 2101.12 1861 2008 1835.7 2008 1804.5Z" fill="#49B170" fill-rule="evenodd"/><text fill="#FFFFFF" font-family="Arial,Arial_MSFontService,sans-serif" font-weight="400" font-size="83" transform="matrix(1 0 0 1 2130.87 1835)">Stop</text><path d="M2222.88 1861 2222.88 1902.62 2209.13 1902.63 2209.13 1861ZM2236.63 1895.75 2216 1937 2195.38 1895.75Z" fill="#03234B"/></g></svg>