<svg width="3898" height="1273" xmlns="http://www.w3.org/2000/svg" xmlns:xlink="http://www.w3.org/1999/xlink" xml:space="preserve" overflow="hidden"><g transform="translate(-251 -458)"><rect x="641" y="978" width="520" height="104" fill="#49B170"/><text fill="#FFFFFF" font-family="Arial,Arial_MSFontService,sans-serif" font-weight="400" font-size="83" transform="matrix(1 0 0 1 818.143 1060)">CH1</text><rect x="1161" y="978" width="1559" height="104" fill="#3CB4E6"/><text fill="#FFFFFF" font-family="Arial,Arial_MSFontService,sans-serif" font-weight="400" font-size="83" transform="matrix(1 0 0 1 1873.67 1060)">Idle</text><rect x="2200" y="1238" width="1039" height="103" fill="#E6007E"/><text fill="#FFFFFF" font-family="Arial,Arial_MSFontService,sans-serif" font-weight="400" font-size="83" transform="matrix(1 0 0 1 2359.95 1320)">Corrupted sampling</text><rect x="2720" y="978" width="519" height="104" fill="#E6007E"/><text fill="#FFFFFF" font-family="Arial,Arial_MSFontService,sans-serif" font-weight="400" font-size="83" transform="matrix(1 0 0 1 2897.11 1060)">CH1</text><path d="M6.875-5.30419e-06 6.87533 433.394-6.87467 433.394-6.875 5.30419e-06ZM20.6253 426.518 0.000360892 467.768-20.6247 426.518Z" fill="#E6007E" transform="matrix(1 0 0 -1 2200 1549.77)"/><rect x="2200" y="1419" width="244" height="134" fill="#E6007E"/><text fill="#FFFFFF" font-family="Arial,Arial_MSFontService,sans-serif" font-weight="400" font-size="83" transform="matrix(1 0 0 1 2233 1516)">Tidle</text><rect x="641" y="666" width="520" height="104" fill="#49B170"/><text fill="#FFFFFF" font-family="Arial,Arial_MSFontService,sans-serif" font-weight="400" font-size="83" transform="matrix(1 0 0 1 818.143 748)">CH1</text><rect x="1161" y="666" width="467" height="104" fill="#3CB4E6"/><text fill="#FFFFFF" font-family="Arial,Arial_MSFontService,sans-serif" font-weight="400" font-size="83" transform="matrix(1 0 0 1 1327.94 748)">Idle</text><rect x="1628" y="666" width="520" height="104" fill="#49B170"/><text fill="#FFFFFF" font-family="Arial,Arial_MSFontService,sans-serif" font-weight="400" font-size="83" transform="matrix(1 0 0 1 1805.65 748)">CH1</text><rect x="2616" y="666" width="520" height="104" fill="#49B170"/><text fill="#FFFFFF" font-family="Arial,Arial_MSFontService,sans-serif" font-weight="400" font-size="83" transform="matrix(1 0 0 1 2793.17 748)">CH1</text><rect x="2148" y="666" width="468" height="104" fill="#3CB4E6"/><text fill="#FFFFFF" font-family="Arial,Arial_MSFontService,sans-serif" font-weight="400" font-size="83" transform="matrix(1 0 0 1 2315.45 748)">Idle</text></g></svg>