<svg width="3898" height="676" xmlns="http://www.w3.org/2000/svg" xmlns:xlink="http://www.w3.org/1999/xlink" xml:space="preserve" overflow="hidden"><g transform="translate(-225 -146)"><rect x="1238" y="640" width="234" height="78.0001" fill="#E6007E"/><text fill="#FFFFFF" font-family="Arial,Arial_MSFontService,sans-serif" font-weight="400" font-size="64" transform="matrix(1 0 0 1 1291.25 702)">CH1</text><rect x="1472" y="640" width="234" height="78.0001" fill="#49B170"/><text fill="#FFFFFF" font-family="Arial,Arial_MSFontService,sans-serif" font-weight="400" font-size="64" transform="matrix(1 0 0 1 1525.14 702)">CH2</text><rect x="1706" y="640" width="234" height="78.0001" fill="#03234B"/><text fill="#FFFFFF" font-family="Arial,Arial_MSFontService,sans-serif" font-weight="400" font-size="64" transform="matrix(1 0 0 1 1759.02 702)">CH8</text><rect x="2408" y="640" width="234" height="78.0001" fill="#3CB4E6"/><text fill="#FFFFFF" font-family="Arial,Arial_MSFontService,sans-serif" font-weight="400" font-size="64" transform="matrix(1 0 0 1 2460.67 702)">CH1</text><rect x="2641" y="640" width="234" height="78.0001" fill="#FFD200"/><text fill="#FFFFFF" font-family="Arial,Arial_MSFontService,sans-serif" font-weight="400" font-size="64" transform="matrix(1 0 0 1 2694.22 702)">CH3</text><rect x="1940" y="458" width="234" height="78" fill="#E6007E"/><text fill="#FFFFFF" font-family="Arial,Arial_MSFontService,sans-serif" font-weight="400" font-size="64" transform="matrix(1 0 0 1 1992.9 520)">CH5</text><rect x="2174" y="458" width="234" height="78" fill="#8C0078"/><text fill="#FFFFFF" font-family="Arial,Arial_MSFontService,sans-serif" font-weight="400" font-size="64" transform="matrix(1 0 0 1 2226.79 520)">CH6</text><path d="M1940 250 1940 717.768" stroke="#E6007E" stroke-width="8.02083" stroke-miterlimit="8" fill="none" fill-rule="evenodd"/><rect x="1940" y="250" width="1299" height="104" fill="#E6007E"/><text fill="#FFFFFF" font-family="Arial,Arial_MSFontService,sans-serif" font-weight="400" font-size="83" transform="matrix(1 0 0 1 2106.27 332)">Injected conversion trigger</text></g></svg>