<svg width="3898" height="1221" xmlns="http://www.w3.org/2000/svg" xmlns:xlink="http://www.w3.org/1999/xlink" xml:space="preserve" overflow="hidden"><g transform="translate(-251 -120)"><rect x="901" y="458" width="571" height="130" fill="#03234B"/><text fill="#FFFFFF" font-family="Arial,Arial_MSFontService,sans-serif" font-weight="400" font-size="83" transform="matrix(1 0 0 1 1012.33 553)">Sample 1</text><rect x="901" y="588" width="571" height="130" fill="#03234B"/><text fill="#FFFFFF" font-family="Arial,Arial_MSFontService,sans-serif" font-weight="400" font-size="83" transform="matrix(1 0 0 1 1012.33 683)">Sample 2</text><rect x="901" y="718" width="571" height="130" fill="#03234B" fill-opacity="0.501961"/><text fill="#FFFFFF" font-family="Arial,Arial_MSFontService,sans-serif" font-weight="400" font-size="83" transform="matrix(1 0 0 1 1145.25 813)">…</text><rect x="901" y="848" width="571" height="130" fill="#03234B"/><text fill="#FFFFFF" font-family="Arial,Arial_MSFontService,sans-serif" font-weight="400" font-size="83" transform="matrix(1 0 0 1 943.585 943)">Sample 1024</text><rect x="2824" y="666" width="571" height="104" fill="#49B170"/><text fill="#FFFFFF" font-family="Arial,Arial_MSFontService,sans-serif" font-weight="400" font-size="83" transform="matrix(1 0 0 1 2969.76 748)">Sample</text><rect x="1680" y="614" width="260" height="208" fill="#3CB4E6"/><text fill="#FFFFFF" font-family="Arial,Arial_MSFontService,sans-serif" font-weight="400" font-size="83" transform="matrix(1 0 0 1 1780.69 748)">∑</text><rect x="2096" y="614" width="572" height="208" fill="#FFD200"/><text fill="#FFFFFF" font-family="Arial,Arial_MSFontService,sans-serif" font-weight="400" font-size="83" transform="matrix(1 0 0 1 2198.58 748)">Right shift</text><path d="M1475.89 517.335 1655.47 640.789 1647.68 652.12 1468.1 528.665ZM1657.59 625.564 1679.9 665.929 1634.22 659.556Z" fill="#03234B"/><path d="M1473.27 646.243 1647.38 678.889 1644.84 692.403 1470.73 659.757ZM1643.15 664.107 1679.9 691.981 1635.55 704.651Z" fill="#03234B"/><path d="M1.26698-6.75725 14.7815-4.22328 12.2475 9.29121-1.26698 6.75725ZM28.296-1.68931 41.8105 0.844656 39.2765 14.3591 25.762 11.8252ZM55.325 3.37862 68.8394 5.91259 66.3055 19.4271 52.791 16.8931ZM82.3539 8.44656 95.8684 10.9805 93.3345 24.495 79.82 21.9611ZM109.383 13.5145 122.897 16.0485 120.363 29.563 106.849 27.029ZM136.412 18.5824 149.926 21.1164 147.392 34.6309 133.878 32.0969ZM163.441 23.6504 175.378 25.8885 172.844 39.403 160.907 37.1649ZM171.155 11.1071 207.897 38.9807 163.553 51.6505Z" fill="#03234B" transform="matrix(1 0 0 -1 1472 782.981)"/><path d="M3.89489-5.66529 183.466 117.79 175.676 129.12-3.89489 5.66529ZM185.59 102.564 207.897 142.929 162.221 136.556Z" fill="#03234B" transform="matrix(1 0 0 -1 1472 912.929)"/><path d="M1940 711.125 2061.55 711.125 2061.55 724.875 1940 724.875ZM2054.67 697.375 2095.92 718 2054.67 738.625Z" fill="#03234B"/><path d="M2668 711.125 2789.55 711.125 2789.55 724.875 2668 724.875ZM2782.67 697.375 2823.92 718 2782.67 738.625Z" fill="#03234B"/></g></svg>