<svg width="3898" height="858" xmlns="http://www.w3.org/2000/svg" xmlns:xlink="http://www.w3.org/1999/xlink" xml:space="preserve" overflow="hidden"><g transform="translate(-251 -172)"><rect x="381" y="458" width="520" height="104" fill="#49B170"/><text fill="#FFFFFF" font-family="Arial,Arial_MSFontService,sans-serif" font-weight="400" font-size="83" transform="matrix(1 0 0 1 558.271 540)">CH1</text><rect x="901" y="458" width="467" height="104" fill="#3CB4E6"/><text fill="#FFFFFF" font-family="Arial,Arial_MSFontService,sans-serif" font-weight="400" font-size="83" transform="matrix(1 0 0 1 1068.07 540)">Idle</text><rect x="1368" y="458" width="520" height="104" fill="#FFD200"/><text fill="#FFFFFF" font-family="Arial,Arial_MSFontService,sans-serif" font-weight="400" font-size="83" transform="matrix(1 0 0 1 1545.78 540)">CH1</text><rect x="2356" y="458" width="520" height="104" fill="#E6007E"/><text fill="#FFFFFF" font-family="Arial,Arial_MSFontService,sans-serif" font-weight="400" font-size="83" transform="matrix(1 0 0 1 2533.29 540)">CH1</text><rect x="1888" y="458" width="468" height="104" fill="#3CB4E6"/><text fill="#FFFFFF" font-family="Arial,Arial_MSFontService,sans-serif" font-weight="400" font-size="83" transform="matrix(1 0 0 1 2055.58 540)">Idle</text><rect x="901" y="614" width="2936" height="104" fill="#49B170"/><text fill="#FFFFFF" font-family="Arial,Arial_MSFontService,sans-serif" font-weight="400" font-size="83" transform="matrix(1 0 0 1 2249.75 696)">CH1</text><text fill="#FFFFFF" font-family="Arial,Arial_MSFontService,sans-serif" font-weight="400" font-size="83" transform="matrix(1 0 0 1 2414.75 696)">-</text><text fill="#FFFFFF" font-family="Arial,Arial_MSFontService,sans-serif" font-weight="400" font-size="83" transform="matrix(1 0 0 1 2442.25 696)">1</text><rect x="2876" y="458" width="467" height="104" fill="#3CB4E6"/><text fill="#FFFFFF" font-family="Arial,Arial_MSFontService,sans-serif" font-weight="400" font-size="83" transform="matrix(1 0 0 1 3043.09 540)">Idle</text></g></svg>