<svg width="3898" height="546" xmlns="http://www.w3.org/2000/svg" xmlns:xlink="http://www.w3.org/1999/xlink" xml:space="preserve" overflow="hidden"><g transform="translate(-251 -328)"><rect x="1602" y="458" width="234" height="78" fill="#E6007E"/><text fill="#FFFFFF" font-family="Arial,Arial_MSFontService,sans-serif" font-weight="400" font-size="64" transform="matrix(1 0 0 1 1655.07 520)">CH1</text><rect x="1836" y="458" width="234" height="78" fill="#49B170"/><text fill="#FFFFFF" font-family="Arial,Arial_MSFontService,sans-serif" font-weight="400" font-size="64" transform="matrix(1 0 0 1 1888.96 520)">CH2</text><rect x="2070.5" y="458.5" width="234" height="78.0001" stroke="#021735" stroke-width="4.58333" stroke-miterlimit="8" fill="#03234B"/><text fill="#FFFFFF" font-family="Arial,Arial_MSFontService,sans-serif" font-weight="400" font-size="64" transform="matrix(1 0 0 1 2122.84 520)">CH8</text><rect x="2304" y="458" width="234" height="78" fill="#E6007E"/><text fill="#FFFFFF" font-family="Arial,Arial_MSFontService,sans-serif" font-weight="400" font-size="64" transform="matrix(1 0 0 1 2357.06 520)">CH1</text><rect x="2538" y="458" width="234" height="78" fill="#FFD200"/><text fill="#FFFFFF" font-family="Arial,Arial_MSFontService,sans-serif" font-weight="400" font-size="64" transform="matrix(1 0 0 1 2590.61 520)">CH3</text><path d="M1709.15 547 1709.15 620.286 1706.85 620.286 1706.85 547ZM1721.75 615.702 1708 643.202 1694.25 615.702Z" fill="#03234B"/><text fill="#03234B" font-family="Arial,Arial_MSFontService,sans-serif" font-weight="400" font-size="55" transform="matrix(1 0 0 1 1583.32 683)">2.5 cycles</text><path d="M1958.15 551 1958.15 675.304 1955.85 675.304 1955.85 551ZM1970.75 670.721 1957 698.221 1943.25 670.721Z" fill="#03234B"/><text fill="#03234B" font-family="Arial,Arial_MSFontService,sans-serif" font-weight="400" font-size="55" transform="matrix(1 0 0 1 1831.58 738)">6.5 cycles</text><path d="M2192.15 551 2192.15 624.286 2189.85 624.286 2189.85 551ZM2204.75 619.702 2191 647.202 2177.25 619.702Z" fill="#03234B"/><text fill="#03234B" font-family="Arial,Arial_MSFontService,sans-serif" font-weight="400" font-size="55" transform="matrix(1 0 0 1 2065.46 687)">47.5 cycles</text><path d="M2425.15 551 2425.15 679.286 2422.85 679.286 2422.85 551ZM2437.75 674.702 2424 702.202 2410.25 674.702Z" fill="#03234B"/><text fill="#03234B" font-family="Arial,Arial_MSFontService,sans-serif" font-weight="400" font-size="55" transform="matrix(1 0 0 1 2299.35 742)">2.5 cycles</text><path d="M2659.15 551 2659.15 624.286 2656.85 624.286 2656.85 551ZM2671.75 619.702 2658 647.202 2644.25 619.702Z" fill="#03234B"/><text fill="#03234B" font-family="Arial,Arial_MSFontService,sans-serif" font-weight="400" font-size="55" transform="matrix(1 0 0 1 2533.23 687)">24.5 cycles</text><path d="M2828 497 3187.15 497" stroke="#03234B" stroke-width="13.75" stroke-miterlimit="8" stroke-dasharray="13.75 13.75" fill="none" fill-rule="evenodd"/></g></svg>