<svg width="3898" height="1481" xmlns="http://www.w3.org/2000/svg" xmlns:xlink="http://www.w3.org/1999/xlink" xml:space="preserve" overflow="hidden"><g transform="translate(-121 -198)"><path d="M1602 412.002C1602 351.25 1651.25 302 1712 302L2152 302C2212.75 302 2262 351.25 2262 412.002L2262 1465C2262 1525.75 2212.75 1575 2152 1575L1712 1575C1651.25 1575 1602 1525.75 1602 1465Z" fill="#3CB4E6" fill-rule="evenodd" fill-opacity="0.501961"/><text fill="#FFFFFF" font-family="Arial,Arial_MSFontService,sans-serif" font-weight="400" font-size="83" transform="matrix(1 0 0 1 1705.42 431)">Scan </text><text fill="#FFFFFF" font-family="Arial,Arial_MSFontService,sans-serif" font-weight="400" font-size="83" transform="matrix(1 0 0 1 1916.25 431)">–</text><text fill="#FFFFFF" font-family="Arial,Arial_MSFontService,sans-serif" font-weight="400" font-size="83" transform="matrix(1 0 0 1 1985 431)">multi </text><text fill="#FFFFFF" font-family="Arial,Arial_MSFontService,sans-serif" font-weight="400" font-size="83" transform="matrix(1 0 0 1 1787.92 530)">channel</text><rect x="1732" y="782" width="390" height="113" fill="#E6007E"/><text fill="#FFFFFF" font-family="Arial,Arial_MSFontService,sans-serif" font-weight="400" font-size="83" transform="matrix(1 0 0 1 1846.93 869)">CHx</text><path d="M1946.88 701 1946.88 743.625 1933.13 743.625 1933.13 701ZM1960.63 736.75 1940 778 1919.38 736.75Z" fill="#03234B"/><path d="M1732 644.5C1732 613.296 1819.3 588 1927 588 2034.7 588 2122 613.296 2122 644.5 2122 675.704 2034.7 701 1927 701 1819.3 701 1732 675.704 1732 644.5Z" fill="#49B170" fill-rule="evenodd"/><text fill="#FFFFFF" font-family="Arial,Arial_MSFontService,sans-serif" font-weight="400" font-size="83" transform="matrix(1 0 0 1 1840.05 675)">Start</text><path d="M1732 1424C1732 1392.52 1819.3 1367 1927 1367 2034.7 1367 2122 1392.52 2122 1424 2122 1455.48 2034.7 1481 1927 1481 1819.3 1481 1732 1455.48 1732 1424Z" fill="#49B170" fill-rule="evenodd"/><text fill="#FFFFFF" font-family="Arial,Arial_MSFontService,sans-serif" font-weight="400" font-size="83" transform="matrix(1 0 0 1 1842.34 1455)">Stop</text><rect x="1732" y="980" width="390" height="113" fill="#E6007E"/><text fill="#FFFFFF" font-family="Arial,Arial_MSFontService,sans-serif" font-weight="400" font-size="83" transform="matrix(1 0 0 1 1885.88 1067)">…</text><path d="M1946.88 900 1946.88 941.625 1933.13 941.625 1933.13 900ZM1960.63 934.75 1940 976 1919.38 934.75Z" fill="#03234B"/><rect x="1732" y="1176" width="390" height="113" fill="#E6007E"/><text fill="#FFFFFF" font-family="Arial,Arial_MSFontService,sans-serif" font-weight="400" font-size="83" transform="matrix(1 0 0 1 1844.63 1263)">CHn</text><path d="M1946.88 1096 1946.88 1137.62 1933.13 1137.62 1933.13 1096ZM1960.63 1130.75 1940 1172 1919.38 1130.75Z" fill="#03234B"/><path d="M1946.88 1289 1946.88 1331.63 1933.13 1331.63 1933.13 1289ZM1960.63 1324.75 1940 1366 1919.38 1324.75Z" fill="#03234B"/></g></svg>