<svg width="3898" height="1040" xmlns="http://www.w3.org/2000/svg" xmlns:xlink="http://www.w3.org/1999/xlink" xml:space="preserve" overflow="hidden"><g transform="translate(-121 -198)"><path d="M1602 412.002C1602 351.25 1651.25 302 1712 302L2152 302C2212.75 302 2262 351.25 2262 412.002L2262 1050C2262 1110.75 2212.75 1160 2152 1160L1712 1160C1651.25 1160 1602 1110.75 1602 1050Z" fill="#3CB4E6" fill-rule="evenodd" fill-opacity="0.501961"/><text fill="#FFFFFF" font-family="Arial,Arial_MSFontService,sans-serif" font-weight="400" font-size="83" transform="matrix(1 0 0 1 1817.71 431)">Single</text><rect x="1732" y="692" width="390" height="113" fill="#E6007E"/><text fill="#FFFFFF" font-family="Arial,Arial_MSFontService,sans-serif" font-weight="400" font-size="83" transform="matrix(1 0 0 1 1846.93 779)">CHx</text><path d="M1946.88 612 1946.88 653.625 1933.13 653.625 1933.13 612ZM1960.63 646.75 1940 688 1919.38 646.75Z" fill="#03234B"/><path d="M1732 555C1732 523.52 1819.3 498 1927 498 2034.7 498 2122 523.52 2122 555 2122 586.48 2034.7 612 1927 612 1819.3 612 1732 586.48 1732 555Z" fill="#49B170" fill-rule="evenodd"/><text fill="#FFFFFF" font-family="Arial,Arial_MSFontService,sans-serif" font-weight="400" font-size="83" transform="matrix(1 0 0 1 1840.05 585)">Start</text><path d="M1732 934.5C1732 903.296 1819.3 878 1927 878 2034.7 878 2122 903.296 2122 934.5 2122 965.704 2034.7 991 1927 991 1819.3 991 1732 965.704 1732 934.5Z" fill="#49B170" fill-rule="evenodd"/><text fill="#FFFFFF" font-family="Arial,Arial_MSFontService,sans-serif" font-weight="400" font-size="83" transform="matrix(1 0 0 1 1842.34 965)">Stop</text><path d="M1946.88 801 1946.88 843.625 1933.13 843.625 1933.13 801ZM1960.63 836.75 1940 878 1919.38 836.75Z" fill="#03234B"/></g></svg>